# xmcd
#
# Track frame offsets:
# 150
# 12910
# 29300
# 44120
# 60080
# 75485
# 89620
# 106235
# 121430
# 136585
# 150325
# 163935
# 180305
# 194310
# 206030
# 224675
# 236560
# 252725
# 267910
# 284130
# 298245
# 313715
# 327155
# 338520
#
# Disc length: 4672 seconds
#
#
# Revision: 0
# Processed by: cddbd v1.5.2PL0 Copyright (c) Steve Scherf et al.
# Submitted via: FreeRIP 2.951 
#
DISCID=64123e18
DTITLE=MISTO - BATIDAO SERTANEJO
DYEAR=2005
DGENRE=SERTANEJO
TTITLE0=CLUBE DO BATIDAO-RIO NEGRO E SOLIMOES
TTITLE1=BREGA DEMAIS-RICK E RENNER
TTITLE2=O CALDEIRAO VAI FERVER-EDSON E HUDSON
TTITLE3=SOMBRA BOA E AGUA FRESCA-DANIEL
TTITLE4=ELA MEXE COMIGO-TEODORO E SAMPAIO
TTITLE5=AJEITA O TREM AI-RIO NEGRO E SOLIMOES
TTITLE6=ALO MEU POVO-GUILHERME E SANTIAGO
TTITLE7=SOLTE A GARGANTA-EDSON E HUDSON
TTITLE8=PRA LA DE BAGDA-GIAN E GIOVANNI
TTITLE9=VOU DE FUSCA-DANIEL
TTITLE10=QUE BICHO QUE E-GINO E GENO
TTITLE11=PORQUE CHORAS-BRUNO E MARRONE-CALIPSO
TTITLE12=MEU CORACAO PAROU-CESAR E PAULINHO
TTITLE13=CHEGA JUNTO-EDSON E HUDSON
TTITLE14=AGORA AGUENTA NOIS-ZEZE E LULU
TTITLE15=PELEJANDO-RICK E RENNER
TTITLE16=TRADICAO GAUCHA-CHITAOZINHO E XORORO
TTITLE17=O BICHO VAI PEGAR-EDSON E HUDSON
TTITLE18=EU GOSTO E DE MULHER-GUILHERME E SANTIAGO
TTITLE19=MACHUCA EU-DANIEL
TTITLE20=QUE PESCA QUE NADA-BRUNO E MARRONE
TTITLE21=SE TIVER MULHER NOIS VAI-CESAR E PAULINHO
TTITLE22=CERVEJARIA-EDSON E HUDSON
TTITLE23=ZOIAO-EDSON E HUDSON
EXTD=
EXTT0=
EXTT1=
EXTT2=
EXTT3=
EXTT4=
EXTT5=
EXTT6=
EXTT7=
EXTT8=
EXTT9=
EXTT10=
EXTT11=
EXTT12=
EXTT13=
EXTT14=
EXTT15=
EXTT16=
EXTT17=
EXTT18=
EXTT19=
EXTT20=
EXTT21=
EXTT22=
EXTT23=
PLAYORDER=
